<?xml version="1.0" encoding="UTF-8" standalone="no"?>
<!-- Created with Inkscape (http://www.inkscape.org/) -->

<svg
   xmlns:dc="http://purl.org/dc/elements/1.1/"
   xmlns:cc="http://creativecommons.org/ns#"
   xmlns:rdf="http://www.w3.org/1999/02/22-rdf-syntax-ns#"
   xmlns:svg="http://www.w3.org/2000/svg"
   xmlns="http://www.w3.org/2000/svg"
   xmlns:sodipodi="http://sodipodi.sourceforge.net/DTD/sodipodi-0.dtd"
   xmlns:inkscape="http://www.inkscape.org/namespaces/inkscape"
   width="210mm"
   height="297mm"
   viewBox="0 0 744.09448819 1052.3622047"
   id="svg2"
   version="1.1"
   inkscape:version="0.91 r13725"
   sodipodi:docname="Donut.svg">
  <defs
     id="defs4" />
  <sodipodi:namedview
     id="base"
     pagecolor="#ffffff"
     bordercolor="#666666"
     borderopacity="1.0"
     inkscape:pageopacity="0.0"
     inkscape:pageshadow="2"
     inkscape:zoom="1"
     inkscape:cx="70.83083"
     inkscape:cy="606.29757"
     inkscape:document-units="px"
     inkscape:current-layer="layer1"
     showgrid="false"
     showborder="false"
     inkscape:window-width="1920"
     inkscape:window-height="1018"
     inkscape:window-x="-8"
     inkscape:window-y="-8"
     inkscape:window-maximized="1" />
  <metadata
     id="metadata7">
    <rdf:RDF>
      <cc:Work
         rdf:about="">
        <dc:format>image/svg+xml</dc:format>
        <dc:type
           rdf:resource="http://purl.org/dc/dcmitype/StillImage" />
        <dc:title></dc:title>
      </cc:Work>
    </rdf:RDF>
  </metadata>
  <g
     inkscape:label="Layer 1"
     inkscape:groupmode="layer"
     id="layer1">
    <path
       style="fill:#ffccaa;opacity:0.576"
       d="M 226 241.36133 A 250 250 0 0 0 -24 491.36133 A 250 250 0 0 0 226 741.36133 A 250 250 0 0 0 476 491.36133 A 250 250 0 0 0 226 241.36133 z M 226 403.86133 A 87.5 87.5 0 0 1 313.5 491.36133 A 87.5 87.5 0 0 1 226 578.86133 A 87.5 87.5 0 0 1 138.5 491.36133 A 87.5 87.5 0 0 1 226 403.86133 z "
       id="path4140" />
    <path
       style="opacity:0.57599996;fill:#1a1a1a"
       d="m 225.15625,233.43164 c -1.4519,-0.002 -2.90367,0.009 -4.35547,0.0312 C 138.26764,234.92647 57.506838,278.46532 12,347.5293 c -29.361843,43.6095 -44.689415,115.35516 -43.855469,167.83203 26.370082,58.88894 48.033229,-85.00976 91.411711,-85.00976 25.069041,0 -6.374772,186.77448 78.162508,85.00976 -1.52706,-29.34359 22.3127,-78.78134 48.72266,-92.88672 12.02728,-6.8611 25.83975,-10.52969 39.68164,-10.61914 42.03127,-0.99692 80.2792,49.98332 79.48047,92.0625 0.006,0.45515 0.006,0.90989 10e-4,1.36423 -0.005,0.45434 -0.015,0.90828 -0.0294,1.36186 -0.0144,0.45358 -0.0331,0.90679 -0.0553,1.35966 -0.0222,0.45287 -0.048,0.90539 -0.0766,1.35761 -3.73679,31.75742 -1.61909,65.70763 21.82784,63.66078 33.16729,-2.89541 31.16415,-110.56996 62.44753,-106.50429 36.16408,4.69997 28.09177,103.5317 64.88212,110.91746 23.86576,4.79111 29.62226,-32.39371 29.13157,-68.07395 0.9866,-56.76005 -16.67249,-126.85789 -51.10351,-172.20899 -41.8286,-56.24146 -107.26479,-94.34182 -177.05469,-101.9082 -10.09338,-1.19081 -20.25469,-1.80033 -30.41797,-1.8125 z"
       id="path4145"
       inkscape:connector-curvature="0"
       sodipodi:nodetypes="ccccsccccssscssscccsc" />
    <path
       sodipodi:nodetypes="ccccsccccssscssscccsc"
       inkscape:connector-curvature="0"
       id="path4158"
       d="m 225.15625,233.43164 c -1.4519,-0.002 -2.90367,0.009 -4.35547,0.0312 C 138.26764,234.92647 57.506838,278.46532 12,347.5293 c -29.361843,43.6095 -44.689415,115.35516 -43.855469,167.83203 26.370082,58.88894 48.033229,-85.00976 91.411711,-85.00976 25.069041,0 -6.374772,186.77448 78.162508,85.00976 -1.52706,-29.34359 22.3127,-78.78134 48.72266,-92.88672 12.02728,-6.8611 25.83975,-10.52969 39.68164,-10.61914 42.03127,-0.99692 80.2792,49.98332 79.48047,92.0625 0.006,0.45515 0.006,0.90989 10e-4,1.36423 -0.005,0.45434 -0.015,0.90828 -0.0294,1.36186 -0.0144,0.45358 -0.0331,0.90679 -0.0553,1.35966 -0.0222,0.45287 -0.048,0.90539 -0.0766,1.35761 -3.73679,31.75742 -1.61909,65.70763 21.82784,63.66078 33.16729,-2.89541 31.16415,-110.56996 62.44753,-106.50429 36.16408,4.69997 28.09177,103.5317 64.88212,110.91746 23.86576,4.79111 29.62226,-32.39371 29.13157,-68.07395 0.9866,-56.76005 -16.67249,-126.85789 -51.10351,-172.20899 -41.8286,-56.24146 -107.26479,-94.34182 -177.05469,-101.9082 -10.09338,-1.19081 -20.25469,-1.80033 -30.41797,-1.8125 z"
       style="opacity:0.57599996;fill:#1a1a1a" />
  </g>
</svg>
